<mxfile host="app.diagrams.net" modified="2024-04-02T23:40:17.700Z" agent="Mozilla/5.0 (X11; Linux x86_64) AppleWebKit/537.36 (KHTML, like Gecko) Chrome/123.0.0.0 Safari/537.36" etag="HYkxyNP-gZbSKMOtiMmB" version="24.2.1" type="github">
  <diagram id="C5RBs43oDa-KdzZeNtuy" name="Page-1">
    <mxGraphModel dx="832" dy="447" grid="0" gridSize="10" guides="1" tooltips="1" connect="1" arrows="1" fold="1" page="1" pageScale="1" pageWidth="827" pageHeight="1169" background="#000000" math="0" shadow="0">
      <root>
        <mxCell id="WIyWlLk6GJQsqaUBKTNV-0" />
        <mxCell id="WIyWlLk6GJQsqaUBKTNV-1" parent="WIyWlLk6GJQsqaUBKTNV-0" />
        <mxCell id="ra1DQpMgIzskxE9z0mDE-7" style="edgeStyle=orthogonalEdgeStyle;rounded=0;orthogonalLoop=1;jettySize=auto;html=1;exitX=1;exitY=0.5;exitDx=0;exitDy=0;entryX=0.5;entryY=0;entryDx=0;entryDy=0;strokeColor=#FFFFFF;" edge="1" parent="WIyWlLk6GJQsqaUBKTNV-1" source="ra1DQpMgIzskxE9z0mDE-0" target="ra1DQpMgIzskxE9z0mDE-3">
          <mxGeometry relative="1" as="geometry">
            <mxPoint x="580" y="325" as="targetPoint" />
          </mxGeometry>
        </mxCell>
        <mxCell id="ra1DQpMgIzskxE9z0mDE-0" value="Envio de sinal de controle da vaga individual para centro de controle" style="ellipse;whiteSpace=wrap;html=1;" vertex="1" parent="WIyWlLk6GJQsqaUBKTNV-1">
          <mxGeometry x="250" y="260" width="130" height="130" as="geometry" />
        </mxCell>
        <mxCell id="ra1DQpMgIzskxE9z0mDE-2" style="edgeStyle=orthogonalEdgeStyle;rounded=0;orthogonalLoop=1;jettySize=auto;html=1;exitX=0.5;exitY=1;exitDx=0;exitDy=0;" edge="1" parent="WIyWlLk6GJQsqaUBKTNV-1" source="ra1DQpMgIzskxE9z0mDE-0" target="ra1DQpMgIzskxE9z0mDE-0">
          <mxGeometry relative="1" as="geometry" />
        </mxCell>
        <mxCell id="ra1DQpMgIzskxE9z0mDE-8" style="edgeStyle=orthogonalEdgeStyle;rounded=0;orthogonalLoop=1;jettySize=auto;html=1;exitX=0.5;exitY=1;exitDx=0;exitDy=0;entryX=1;entryY=0.5;entryDx=0;entryDy=0;strokeColor=#FFFFFF;" edge="1" parent="WIyWlLk6GJQsqaUBKTNV-1" source="ra1DQpMgIzskxE9z0mDE-3" target="ra1DQpMgIzskxE9z0mDE-5">
          <mxGeometry relative="1" as="geometry" />
        </mxCell>
        <mxCell id="ra1DQpMgIzskxE9z0mDE-3" value="&lt;font style=&quot;font-size: 12px;&quot;&gt;Contagem no banco de dados do número de vagas disponíveis totais e por setor do estacionamento&lt;/font&gt;" style="ellipse;whiteSpace=wrap;html=1;fontSize=11;strokeWidth=1;" vertex="1" parent="WIyWlLk6GJQsqaUBKTNV-1">
          <mxGeometry x="500" y="420" width="150" height="150" as="geometry" />
        </mxCell>
        <mxCell id="ra1DQpMgIzskxE9z0mDE-9" style="edgeStyle=orthogonalEdgeStyle;rounded=0;orthogonalLoop=1;jettySize=auto;html=1;exitX=0.5;exitY=0;exitDx=0;exitDy=0;entryX=0.5;entryY=1;entryDx=0;entryDy=0;strokeColor=#FFFFFF;" edge="1" parent="WIyWlLk6GJQsqaUBKTNV-1" source="ra1DQpMgIzskxE9z0mDE-5" target="ra1DQpMgIzskxE9z0mDE-0">
          <mxGeometry relative="1" as="geometry" />
        </mxCell>
        <mxCell id="ra1DQpMgIzskxE9z0mDE-5" value="Envio para monitores Led na entrada com a contagem de vagas totais e vagas por setor" style="ellipse;whiteSpace=wrap;html=1;aspect=fixed;" vertex="1" parent="WIyWlLk6GJQsqaUBKTNV-1">
          <mxGeometry x="240" y="520" width="150" height="150" as="geometry" />
        </mxCell>
      </root>
    </mxGraphModel>
  </diagram>
</mxfile>
